# xmcd CD database file
# Copyright (C) 1993-1998 Ti Kan
#
# Track frame offsets:
#  150
#  22385
#  44665
#  63700
#  83367
#  105097
#  125342
#  144142
#  158530
#  171865
#
# Disc length: 2582 seconds
#
# Revision: 1
# Processed by: cddbd v1.4b41PL1 Copyright (c) Steve Scherf et al.
# Submitted via: KiC 2.1 - (C) 1996-1998 Alwin Hoogerdijk
#
DISCID=780a140a
DTITLE=David Lynn Jones - Play By Ear
DYEAR=1900
DGENRE=
TTITLE0=a day in california
TTITLE1=the little american
TTITLE2=here comes the night
TTITLE3=our just reward
TTITLE4=shoot for the sky
TTITLE5=who's drivin' this train
TTITLE6=sleeping with the jailer
TTITLE7=nightingale waltz
TTITLE8=chains
TTITLE9=crossroads in
EXTD=
EXTT0=
EXTT1=
EXTT2=
EXTT3=
EXTT4=
EXTT5=
EXTT6=
EXTT7=
EXTT8=
EXTT9=
PLAYORDER=
